<?xml version="1.0" encoding="UTF-8"?>
<!DOCTYPE svg PUBLIC "-//W3C//DTD SVG 1.1//EN" "http://www.w3.org/Graphics/SVG/1.1/DTD/svg11.dtd">
<svg xmlns="http://www.w3.org/2000/svg" version="1.1" width="3079px" height="3079px" style="shape-rendering:geometricPrecision; text-rendering:geometricPrecision; image-rendering:optimizeQuality; fill-rule:evenodd; clip-rule:evenodd" xmlns:xlink="http://www.w3.org/1999/xlink">
<g><path style="opacity:1" fill="#1f1f1f" d="M -0.5,-0.5 C 1025.83,-0.5 2052.17,-0.5 3078.5,-0.5C 3078.5,1025.83 3078.5,2052.17 3078.5,3078.5C 2052.17,3078.5 1025.83,3078.5 -0.5,3078.5C -0.5,2052.17 -0.5,1025.83 -0.5,-0.5 Z"/></g>
<g><path style="opacity:1" fill="#f9f9f9" d="M 1298.5,673.5 C 1300.91,674.398 1302.91,675.898 1304.5,678C 1307.94,678.217 1310.61,679.717 1312.5,682.5C 1316.97,683.96 1320.97,686.293 1324.5,689.5C 1326.53,690.172 1328.53,690.838 1330.5,691.5C 1337.81,696.235 1345.15,701.068 1352.5,706C 1355.56,706.058 1357.89,707.391 1359.5,710C 1363.14,709.684 1365.8,711.018 1367.5,714C 1372,716.416 1376.33,719.083 1380.5,722C 1383.82,721.775 1386.16,723.108 1387.5,726C 1390.03,726.516 1392.2,727.683 1394,729.5C 1394.33,729.167 1394.67,728.833 1395,728.5C 1395.5,729.667 1396.33,730.5 1397.5,731C 1396.96,731.717 1396.29,732.217 1395.5,732.5C 1190.76,732.832 986.097,732.499 781.5,731.5C 781.002,615.026 781.502,498.693 783,382.5C 784.255,383.211 785.421,384.044 786.5,385C 792.231,385.21 797.897,385.876 803.5,387C 805.619,389.393 808.285,390.726 811.5,391C 817.385,395.443 823.719,399.109 830.5,402C 831.5,403 832.5,404 833.5,405C 848.563,413.187 863.563,421.52 878.5,430C 880.412,432.788 883.079,434.121 886.5,434C 892.58,439.037 899.246,443.037 906.5,446C 907.842,448.892 910.175,450.225 913.5,450C 918.558,454.057 923.892,457.724 929.5,461C 933.278,463.089 937.278,464.755 941.5,466C 945.088,469.93 949.421,472.597 954.5,474C 961.603,479.034 968.937,483.7 976.5,488C 987.039,493.851 997.706,499.518 1008.5,505C 1013.87,508.054 1018.87,511.554 1023.5,515.5C 1026.82,515.983 1029.49,517.483 1031.5,520C 1033.17,520.333 1034.83,520.667 1036.5,521C 1041.5,525.731 1047,528.897 1053,530.5C 1062.72,537.766 1073.22,543.932 1084.5,549C 1091.83,553.999 1099.16,558.999 1106.5,564C 1117.72,569.443 1128.72,575.109 1139.5,581C 1151.34,588.156 1163,595.489 1174.5,603C 1177.82,602.775 1180.16,604.108 1181.5,607C 1189.19,609.685 1196.19,613.685 1202.5,619C 1205.56,619.058 1207.89,620.391 1209.5,623C 1224.56,631.187 1239.56,639.52 1254.5,648C 1269.04,656.71 1283.71,665.21 1298.5,673.5 Z"/></g>
<g><path style="opacity:1" fill="#323232" d="M 1330.5,691.5 C 1328.53,690.838 1326.53,690.172 1324.5,689.5C 1320.97,686.293 1316.97,683.96 1312.5,682.5C 1310.61,679.717 1307.94,678.217 1304.5,678C 1302.91,675.898 1300.91,674.398 1298.5,673.5C 1298.37,672.761 1298.54,672.094 1299,671.5C 1301.48,672.447 1303.81,672.447 1306,671.5C 1306.93,673.335 1308.09,673.668 1309.5,672.5C 1311.44,674.122 1311.77,675.956 1310.5,678C 1311.7,678.903 1312.53,680.069 1313,681.5C 1316.46,678.636 1318.62,678.969 1319.5,682.5C 1320.74,679.856 1322.74,679.023 1325.5,680C 1323.7,680.637 1322.36,681.803 1321.5,683.5C 1323.05,683.207 1324.71,683.707 1326.5,685C 1325.83,686 1325.17,687 1324.5,688C 1326.2,687.503 1327.87,687.67 1329.5,688.5C 1330.39,689.325 1330.72,690.325 1330.5,691.5 Z"/></g>
<g><path style="opacity:1" fill="#2b2b2b" d="M 781.5,731.5 C 986.097,732.499 1190.76,732.832 1395.5,732.5C 1395.65,733.552 1395.48,734.552 1395,735.5C 1291.72,734.192 1187.89,733.526 1083.5,733.5C 983.125,733.501 882.958,734.168 783,735.5C 782.25,734.874 781.416,734.374 780.5,734C 781.252,733.329 781.586,732.496 781.5,731.5 Z"/></g>
<g><path style="opacity:1" fill="#252525" d="M 1241.5,972.5 C 1239.79,969.787 1237.45,967.787 1234.5,966.5C 1233.4,965.255 1232.4,963.922 1231.5,962.5C 1082.17,961.333 932.834,961.167 783.5,962C 782.354,962.645 781.354,963.478 780.5,964.5C 780.167,1244.17 779.833,1523.83 779.5,1803.5C 779.5,2083.5 780.167,2363.17 781.5,2642.5C 780.415,2647.42 782.082,2649.09 786.5,2647.5C 787.531,2648.25 788.698,2648.92 790,2649.5C 790.333,2648.83 790.667,2648.17 791,2647.5C 791.451,2650.46 791.285,2653.12 790.5,2655.5C 786.417,2655.2 782.417,2654.7 778.5,2654C 776.99,2652.65 775.99,2650.98 775.5,2649C 775.735,2646.65 775.901,2644.15 776,2641.5C 776.718,2642.45 777.551,2642.62 778.5,2642C 778.165,2362.65 778.165,2083.15 778.5,1803.5C 778.499,1524.36 777.833,1245.36 776.5,966.5C 777.167,966.167 777.833,965.833 778.5,965.5C 775.856,964.259 775.023,962.259 776,959.5C 930.478,960.833 1084.98,960.833 1239.5,959.5C 1238.17,962.167 1238.17,964.833 1239.5,967.5C 1241.45,967.227 1242.95,967.893 1244,969.5C 1244.73,967.842 1245.89,967.342 1247.5,968C 1245.49,968.875 1245.49,970.209 1247.5,972C 1246.87,972.75 1246.37,973.584 1246,974.5C 1245.3,971.589 1243.8,970.923 1241.5,972.5 Z"/></g>
<g><path style="opacity:1" fill="#1f1f1f" d="M 1234.5,966.5 C 1083.6,966.168 932.763,966.501 782,967.5C 781.5,1525.83 781.333,2084.17 781.5,2642.5C 780.167,2363.17 779.5,2083.5 779.5,1803.5C 779.833,1523.83 780.167,1244.17 780.5,964.5C 781.354,963.478 782.354,962.645 783.5,962C 932.834,961.167 1082.17,961.333 1231.5,962.5C 1232.4,963.922 1233.4,965.255 1234.5,966.5 Z"/></g>
<g><path style="opacity:1" fill="#f9f9f9" d="M 1234.5,966.5 C 1237.45,967.787 1239.79,969.787 1241.5,972.5C 1242.12,973.627 1242.96,974.627 1244,975.5C 1244.67,1446.17 1244.67,1916.83 1244,2387.5C 1243.63,2388.42 1243.13,2389.25 1242.5,2390C 1239.24,2390.75 1236.58,2392.42 1234.5,2395C 1224.72,2399.13 1215.72,2404.47 1207.5,2411C 1205.83,2411.33 1204.17,2411.67 1202.5,2412C 1197.44,2416.06 1192.11,2419.72 1186.5,2423C 1182.64,2425 1178.64,2426.83 1174.5,2428.5C 1149.49,2443.86 1124.16,2458.36 1098.5,2472C 1083.7,2482.06 1068.36,2491.06 1052.5,2499C 1046.91,2502.25 1041.58,2505.91 1036.5,2510C 1032.3,2511.2 1028.3,2512.87 1024.5,2515C 1012.54,2522.67 1000.54,2530.33 988.5,2538C 981.117,2540.35 974.45,2544.02 968.5,2549C 965.441,2549.06 963.108,2550.39 961.5,2553C 954.305,2556.27 947.638,2560.27 941.5,2565C 938.175,2564.78 935.842,2566.11 934.5,2569C 925.461,2572.89 916.794,2577.39 908.5,2582.5C 901.198,2587.23 893.864,2592.07 886.5,2597C 884.833,2597.33 883.167,2597.67 881.5,2598C 873.833,2603 866.167,2608 858.5,2613C 852.541,2615.98 846.541,2618.98 840.5,2622C 839.748,2622.67 839.414,2623.5 839.5,2624.5C 837.345,2624.37 835.345,2624.87 833.5,2626C 826.198,2630.65 818.865,2635.32 811.5,2640C 808.034,2639.88 805.368,2641.21 803.5,2644C 801.134,2644.44 798.801,2644.94 796.5,2645.5C 792.968,2645.31 789.635,2645.98 786.5,2647.5C 782.082,2649.09 780.415,2647.42 781.5,2642.5C 781.333,2084.17 781.5,1525.83 782,967.5C 932.763,966.501 1083.6,966.168 1234.5,966.5 Z"/></g>
<g><path style="opacity:1" fill="#f9f9f9" d="M 1977.5,1066.5 C 1989.73,1072.72 2001.73,1079.38 2013.5,1086.5C 2014.96,1087.46 2016.29,1088.62 2017.5,1090C 2021.83,1091.67 2026.17,1093.33 2030.5,1095C 2033.41,1099.23 2037.41,1101.9 2042.5,1103C 2044.06,1105.61 2046.39,1106.95 2049.5,1107C 2056.04,1111.77 2063.04,1115.77 2070.5,1119C 2095.1,1133.97 2120.1,1148.47 2145.5,1162.5C 2147.18,1164.85 2149.51,1166.19 2152.5,1166.5C 2160.39,1171.06 2168.05,1175.9 2175.5,1181C 2178.56,1180.89 2180.89,1182.06 2182.5,1184.5C 2184.08,1185.46 2185.74,1186.12 2187.5,1186.5C 2199.46,1193.72 2211.46,1201.06 2223.5,1208.5C 2227.13,1210.92 2231.13,1212.75 2235.5,1214C 2239.6,1217.61 2244.27,1220.11 2249.5,1221.5C 2249.28,1222.68 2249.61,1223.68 2250.5,1224.5C 2258.96,1228.46 2267.29,1232.63 2275.5,1237C 2276.17,1238 2276.83,1239 2277.5,1240C 2279.56,1240.31 2281.56,1240.81 2283.5,1241.5C 2285.43,1243.8 2287.76,1245.64 2290.5,1247C 2301.28,1253.23 2312.28,1259.23 2323.5,1265C 2325.37,1267.79 2328.03,1269.12 2331.5,1269C 2332.84,1271.89 2335.18,1273.22 2338.5,1273C 2344.65,1278.07 2351.31,1282.07 2358.5,1285C 2367.36,1291.2 2376.69,1296.53 2386.5,1301C 2397.65,1308.6 2409.32,1315.27 2421.5,1321C 2433.13,1328.48 2444.79,1335.81 2456.5,1343C 2458.17,1343.33 2459.83,1343.67 2461.5,1344C 2469,1349.25 2476.66,1354.25 2484.5,1359C 2487.82,1358.78 2490.16,1360.11 2491.5,1363C 2498.69,1366.09 2505.36,1369.92 2511.5,1374.5C 2514.84,1374.83 2517.51,1376.33 2519.5,1379C 2526.71,1381.95 2533.38,1385.95 2539.5,1391C 2542.92,1390.88 2545.59,1392.21 2547.5,1395C 2554.72,1398.25 2561.39,1402.25 2567.5,1407C 2570.56,1406.89 2572.89,1408.06 2574.5,1410.5C 2596.51,1422.84 2618.51,1435.17 2640.5,1447.5C 2649.68,1452.77 2658.68,1458.61 2667.5,1465C 2680.89,1471.02 2693.55,1478.02 2705.5,1486C 2713.72,1490.71 2722.05,1495.04 2730.5,1499C 2736.72,1503.61 2743.39,1507.44 2750.5,1510.5C 2751.83,1512.17 2753.17,1513.83 2754.5,1515.5C 2752.75,1519.41 2749.75,1521.58 2745.5,1522C 2737.94,1526.3 2730.6,1530.97 2723.5,1536C 2721.61,1536.97 2719.61,1537.64 2717.5,1538C 2708.03,1544.5 2698.36,1550.5 2688.5,1556C 2684.09,1558.54 2679.42,1560.54 2674.5,1562C 2648.52,1579.01 2621.86,1594.67 2594.5,1609C 2585.68,1615.13 2576.35,1620.46 2566.5,1625C 2561.81,1628.36 2557.15,1631.7 2552.5,1635C 2549.03,1634.88 2546.37,1636.21 2544.5,1639C 2542.78,1639.35 2541.12,1639.85 2539.5,1640.5C 2534.2,1643.43 2529.2,1646.93 2524.5,1651C 2520.17,1652.67 2515.83,1654.33 2511.5,1656C 2510.83,1657 2510.17,1658 2509.5,1659C 2498.62,1664.5 2487.96,1670.16 2477.5,1676C 2471.15,1681.32 2464.15,1685.32 2456.5,1688C 2444.93,1695.52 2433.26,1702.85 2421.5,1710C 2406.98,1717.2 2392.98,1725.2 2379.5,1734C 2377.85,1734.61 2376.18,1735.11 2374.5,1735.5C 2368.17,1740.65 2361.17,1744.49 2353.5,1747C 2349.95,1750.12 2345.95,1752.79 2341.5,1755C 2340.29,1756.04 2339.29,1757.21 2338.5,1758.5C 2335.14,1757.79 2332.8,1758.96 2331.5,1762C 2329.83,1762.33 2328.17,1762.67 2326.5,1763C 2314.88,1770.52 2303.21,1777.86 2291.5,1785C 2289.11,1785.68 2286.77,1786.51 2284.5,1787.5C 2277.72,1792.27 2270.72,1796.77 2263.5,1801C 2260.08,1800.88 2257.41,1802.21 2255.5,1805C 2252.08,1804.86 2250.08,1806.36 2249.5,1809.5C 2247.44,1809.69 2245.44,1810.19 2243.5,1811C 2237.39,1815.56 2231.06,1819.39 2224.5,1822.5C 2214.52,1827.85 2204.85,1833.52 2195.5,1839.5C 2180.89,1847.21 2166.56,1855.71 2152.5,1865C 2136.17,1872.88 2120.5,1881.88 2105.5,1892C 2095.72,1896.42 2086.39,1901.76 2077.5,1908C 2074.39,1908.05 2072.06,1909.39 2070.5,1912C 2063.04,1915.23 2056.04,1919.23 2049.5,1924C 2046.39,1924.05 2044.06,1925.39 2042.5,1928C 2037.41,1929.1 2033.41,1931.77 2030.5,1936C 2028.44,1936.31 2026.44,1936.81 2024.5,1937.5C 2021.16,1939.83 2017.83,1942.17 2014.5,1944.5C 2012.69,1944.49 2011.02,1944.99 2009.5,1946C 2006.53,1947.31 2004.19,1949.31 2002.5,1952C 1999.08,1951.88 1996.41,1953.21 1994.5,1956C 1988.32,1958.92 1982.32,1962.09 1976.5,1965.5C 1972.93,1967.2 1969.6,1969.37 1966.5,1972C 1965.17,1972.33 1963.83,1972.67 1962.5,1973C 1959.58,1974.95 1956.91,1977.11 1954.5,1979.5C 1952.44,1979.69 1950.44,1980.19 1948.5,1981C 1940.76,1985.74 1933.1,1990.58 1925.5,1995.5C 1917.74,1999.41 1910.07,2003.58 1902.5,2008C 1901.5,2009 1900.5,2010 1899.5,2011C 1895.3,2012.2 1891.3,2013.87 1887.5,2016C 1881.15,2021.32 1874.15,2025.32 1866.5,2028C 1864.74,2030.94 1862.07,2032.61 1858.5,2033C 1850.81,2037.31 1843.47,2041.98 1836.5,2047C 1834.83,2047.33 1833.17,2047.67 1831.5,2048C 1827.64,2051.43 1823.3,2054.1 1818.5,2056C 1817.16,2058.89 1814.82,2060.22 1811.5,2060C 1804.83,2064.67 1797.83,2068.84 1790.5,2072.5C 1790.02,2073.48 1789.36,2074.31 1788.5,2075C 1781.27,2077.49 1774.6,2081.16 1768.5,2086C 1760.04,2090.3 1751.71,2094.8 1743.5,2099.5C 1741.49,2102.02 1738.82,2103.52 1735.5,2104C 1729.16,2108.66 1722.5,2112.49 1715.5,2115.5C 1712.43,2117.53 1709.43,2119.69 1706.5,2122C 1701.41,2123.41 1697.08,2126.08 1693.5,2130C 1690.18,2129.78 1687.84,2131.11 1686.5,2134C 1684.83,2134.33 1683.17,2134.67 1681.5,2135C 1676.44,2139.06 1671.11,2142.72 1665.5,2146C 1662.44,2145.89 1660.11,2147.06 1658.5,2149.5C 1650.29,2154.2 1641.96,2158.7 1633.5,2163C 1628.32,2166.09 1623.32,2169.42 1618.5,2173C 1601.85,2181.32 1585.85,2190.66 1570.5,2201C 1566.5,2202.67 1562.5,2204.33 1558.5,2206C 1553.08,2209.03 1548.08,2212.53 1543.5,2216.5C 1538.18,2219.9 1532.52,2222.56 1526.5,2224.5C 1526.33,1811.17 1526.5,1397.83 1527,984.5C 1528.51,979.618 1529.85,974.618 1531,969.5C 1531.5,968.333 1532.33,967.5 1533.5,967C 1625.2,966.015 1716.86,966.348 1808.5,968C 1816.04,972.988 1823.7,977.988 1831.5,983C 1834.82,982.775 1837.16,984.108 1838.5,987C 1846.15,989.68 1853.15,993.68 1859.5,999C 1862.82,998.775 1865.16,1000.11 1866.5,1003C 1889.89,1014.72 1912.56,1027.72 1934.5,1042C 1949.15,1049.66 1963.49,1057.82 1977.5,1066.5 Z"/></g>
<g><path style="opacity:1" fill="#2b2b2b" d="M 1526.5,2224.5 C 1532.52,2222.56 1538.18,2219.9 1543.5,2216.5C 1542.74,2218.61 1542.58,2220.61 1543,2222.5C 1541.98,2221.37 1541.32,2221.7 1541,2223.5C 1538.91,2222.36 1536.74,2222.36 1534.5,2223.5C 1535.78,2225.7 1535.78,2227.87 1534.5,2230C 1533.55,2230.62 1532.72,2230.45 1532,2229.5C 1531.67,2230.17 1531.33,2230.83 1531,2231.5C 1529.06,2229.28 1527.39,2229.28 1526,2231.5C 1525.15,2230.58 1524.15,2230.58 1523,2231.5C 1519.37,2230.9 1518.71,2229.23 1521,2226.5C 1524.36,2228.4 1524.36,2227.73 1521,2224.5C 1520.83,1813.26 1520.33,1402.1 1519.5,991C 1519.83,990.833 1520.17,990.667 1520.5,990.5C 1521.5,1401.5 1521.83,1812.5 1521.5,2223.5C 1523.29,2223.37 1524.96,2223.7 1526.5,2224.5 Z"/></g>
<g><path style="opacity:1" fill="#313131" d="M 2013.5,1086.5 C 2001.73,1079.38 1989.73,1072.72 1977.5,1066.5C 1977.46,1065.24 1977.96,1064.24 1979,1063.5C 1980.32,1063.8 1981.82,1063.97 1983.5,1064C 1984.13,1064.75 1984.63,1065.58 1985,1066.5C 1986.49,1064.67 1988.32,1063.83 1990.5,1064C 1989.67,1064.91 1988.67,1065.58 1987.5,1066C 1988.22,1068.12 1989.39,1068.62 1991,1067.5C 1991.62,1068.45 1991.45,1069.28 1990.5,1070C 1991.74,1072.3 1993.41,1072.8 1995.5,1071.5C 1996.67,1073.17 1997.83,1074.83 1999,1076.5C 2000.75,1075.19 2002.25,1075.52 2003.5,1077.5C 2004.85,1076.31 2006.02,1074.98 2007,1073.5C 2007.5,1075.47 2007.66,1077.47 2007.5,1079.5C 2010.06,1080.18 2012.73,1080.35 2015.5,1080C 2014.17,1080.67 2014.17,1081.33 2015.5,1082C 2014.53,1083.2 2013.53,1083.7 2012.5,1083.5C 2013.13,1084.42 2013.46,1085.42 2013.5,1086.5 Z"/></g>
<g><path style="opacity:1" fill="#313131" d="M 2223.5,1208.5 C 2211.46,1201.06 2199.46,1193.72 2187.5,1186.5C 2188.07,1183.76 2189.74,1182.92 2192.5,1184C 2195.65,1184.11 2196.65,1185.44 2195.5,1188C 2196.55,1188.49 2197.55,1188.33 2198.5,1187.5C 2198.94,1188.7 2199.27,1189.86 2199.5,1191C 2202.43,1192.66 2205.43,1192.99 2208.5,1192C 2208.17,1192.33 2207.83,1192.67 2207.5,1193C 2209.05,1194.29 2210.72,1194.96 2212.5,1195C 2210.22,1192.12 2210.89,1191.79 2214.5,1194C 2215.56,1195.46 2215.56,1197.12 2214.5,1199C 2216.51,1200.63 2218.51,1201.47 2220.5,1201.5C 2220.29,1202.09 2219.96,1202.59 2219.5,1203C 2222.21,1203.87 2223.55,1205.71 2223.5,1208.5 Z"/></g>
<g><path style="opacity:1" fill="#313131" d="M 2374.5,1735.5 C 2374.73,1737.62 2375.06,1739.79 2375.5,1742C 2374.52,1743.05 2373.35,1743.55 2372,1743.5C 2371.33,1739.5 2370.67,1739.5 2370,1743.5C 2369.67,1742.83 2369.33,1742.17 2369,1741.5C 2368.2,1744.22 2367.04,1746.72 2365.5,1749C 2367.3,1749.32 2367.63,1749.98 2366.5,1751C 2363.12,1751.55 2359.62,1751.38 2356,1750.5C 2354.27,1751.25 2352.43,1751.75 2350.5,1752C 2348.84,1752.73 2348.34,1753.89 2349,1755.5C 2349.33,1754.83 2349.67,1754.17 2350,1753.5C 2352.66,1759.31 2350.83,1760.65 2344.5,1757.5C 2342.57,1759.11 2340.57,1759.44 2338.5,1758.5C 2339.29,1757.21 2340.29,1756.04 2341.5,1755C 2345.95,1752.79 2349.95,1750.12 2353.5,1747C 2361.17,1744.49 2368.17,1740.65 2374.5,1735.5 Z"/></g>
<g><path style="opacity:1" fill="#323232" d="M 2224.5,1822.5 C 2223,1824.26 2222.67,1826.09 2223.5,1828C 2222.67,1828.91 2221.67,1829.58 2220.5,1830C 2220.83,1830.33 2221.17,1830.67 2221.5,1831C 2219.42,1830.97 2217.42,1831.13 2215.5,1831.5C 2214.32,1833.14 2214.32,1834.8 2215.5,1836.5C 2214.35,1839.32 2213.18,1839.65 2212,1837.5C 2210.29,1838.46 2208.46,1839.13 2206.5,1839.5C 2204.1,1839.83 2201.93,1839.49 2200,1838.5C 2199.8,1840.29 2198.97,1841.62 2197.5,1842.5C 2197.91,1841.22 2197.25,1840.22 2195.5,1839.5C 2204.85,1833.52 2214.52,1827.85 2224.5,1822.5 Z"/></g>
<g><path style="opacity:1" fill="#323232" d="M 2014.5,1944.5 C 2015.2,1946.56 2015.54,1948.56 2015.5,1950.5C 2012.46,1951.54 2009.46,1951.7 2006.5,1951C 2007.75,1952.49 2007.75,1953.99 2006.5,1955.5C 2005.83,1954.83 2005.17,1954.17 2004.5,1953.5C 2004.17,1953.83 2003.83,1954.17 2003.5,1954.5C 2004.43,1955.77 2004.59,1957.1 2004,1958.5C 2003.33,1955.83 2002.67,1955.83 2002,1958.5C 2001.71,1954.83 2000.21,1953.99 1997.5,1956C 2000.49,1956.43 2000.99,1957.59 1999,1959.5C 1996.37,1959.23 1993.54,1959.07 1990.5,1959C 1991.05,1960.4 1991.38,1961.73 1991.5,1963C 1990.55,1963.62 1989.72,1963.45 1989,1962.5C 1988.54,1963.74 1989.04,1964.58 1990.5,1965C 1988.7,1965.32 1988.37,1965.98 1989.5,1967C 1987.95,1967.33 1986.62,1966.83 1985.5,1965.5C 1982.91,1966.32 1979.91,1966.32 1976.5,1965.5C 1982.32,1962.09 1988.32,1958.92 1994.5,1956C 1996.41,1953.21 1999.08,1951.88 2002.5,1952C 2004.19,1949.31 2006.53,1947.31 2009.5,1946C 2011.02,1944.99 2012.69,1944.49 2014.5,1944.5 Z"/></g>
<g><path style="opacity:1" fill="#2f2f2f" d="M 1954.5,1979.5 C 1955.9,1982.77 1954.9,1983.77 1951.5,1982.5C 1950.27,1989.27 1946.43,1992.27 1940,1991.5C 1939.05,1991.09 1938.39,1990.43 1938,1989.5C 1937.33,1992.17 1936.67,1992.17 1936,1989.5C 1935.33,1990.83 1934.67,1992.17 1934,1993.5C 1931.71,1992.69 1929.88,1993.52 1928.5,1996C 1929.03,1996.69 1929.69,1997.19 1930.5,1997.5C 1930.3,1996.47 1930.8,1995.47 1932,1994.5C 1933.82,1997.42 1932.82,1999.08 1929,1999.5C 1927.6,1998.27 1926.43,1996.94 1925.5,1995.5C 1933.1,1990.58 1940.76,1985.74 1948.5,1981C 1950.44,1980.19 1952.44,1979.69 1954.5,1979.5 Z"/></g>
<g><path style="opacity:1" fill="#303030" d="M 839.5,2624.5 C 839.205,2626.48 838.871,2628.48 838.5,2630.5C 836.356,2631.95 834.523,2631.62 833,2629.5C 831.847,2632.71 831.18,2636.04 831,2639.5C 830,2636.83 829,2636.83 828,2639.5C 826.615,2638.45 825.615,2637.12 825,2635.5C 822.787,2639.52 821.787,2639.52 822,2635.5C 821,2636.83 820,2638.17 819,2639.5C 817.883,2639.33 816.716,2639 815.5,2638.5C 814.201,2640.76 813.201,2643.09 812.5,2645.5C 808.778,2647.75 806.611,2646.75 806,2642.5C 805.74,2644.62 804.74,2646.28 803,2647.5C 802.692,2646.69 802.192,2646.03 801.5,2645.5C 799.684,2646.73 798.017,2646.73 796.5,2645.5C 798.801,2644.94 801.134,2644.44 803.5,2644C 805.368,2641.21 808.034,2639.88 811.5,2640C 818.865,2635.32 826.198,2630.65 833.5,2626C 835.345,2624.87 837.345,2624.37 839.5,2624.5 Z"/></g>
</svg>
